# xmcd
#
# Track frame offsets: 
#        150
#        11435
#        22879
#        33580
#        44110
#        58039
#        70159
#        82805
#        95563
#        109305
#        123940
#        136825
#        147623
#        161279
#        175439
#        188661
#        201113
#        213759
#        224949
#        239126
#        252105
#        264752
#        277543
#        289151
#        301932
#
# Disc length: 4210 seconds
#
# Revision: 0
# Processed by: cddbd v1.5.2PL0 Copyright (c) Steve Scherf et al.
# Submitted via: ExactAudioCopy v0.99pb4
#
DISCID=6c107019
DTITLE=Various Artist - Sounds Like Jimmy Rodgers - Disk 1
DYEAR=2005
DGENRE=Folk
TTITLE0=Yodeling Ranger
TTITLE1=Tuck Away My Lonesome Blues
TTITLE2=My Little Red Ford
TTITLE3=Cotton Mill Blues
TTITLE4=Gonna Quit Drinkin' When I Die
TTITLE5=Never No Mo' Blues
TTITLE6=My Lovin' Gal Lucille
TTITLE7=Wind Swept Desert (Desert Blues)
TTITLE8=Rattlin' Daddy
TTITLE9=Yodel Blues, Pt1
TTITLE10=Yodel Blues, Pt2
TTITLE11=Never No More Hard Times Blues
TTITLE12=Sleep Baby Sleep
TTITLE13=The Away Out on the Mountain
TTITLE14=Moonshiner's Dream
TTITLE15='Way Out There
TTITLE16=Back on the Texas Plains
TTITLE17=Peach Pickin' Time in Georgia
TTITLE18=The Mean Old Lonesome Blues
TTITLE19=Women ('Bout to Make a Wreck Out of Me)
TTITLE20=Shreveport County Jail Blues
TTITLE21=Dear Old Sunny South by the Sea
TTITLE22=Trifling Mama Blues
TTITLE23=Rocky Mountain Blues
TTITLE24=Rocky Mountain Sweetheart
EXTD=
EXTT0=
EXTT1=
EXTT2=
EXTT3=
EXTT4=
EXTT5=
EXTT6=
EXTT7=
EXTT8=
EXTT9=
EXTT10=
EXTT11=
EXTT12=
EXTT13=
EXTT14=
EXTT15=
EXTT16=
EXTT17=
EXTT18=
EXTT19=
EXTT20=
EXTT21=
EXTT22=
EXTT23=
EXTT24=
PLAYORDER=
